<?xml version="1.0" encoding="UTF-8"?>
<svg version="1.1" xmlns="http://www.w3.org/2000/svg" width="1080" height="1080">
<path d="M0 0 C356.4 0 712.8 0 1080 0 C1080 356.4 1080 712.8 1080 1080 C723.6 1080 367.2 1080 0 1080 C0 723.6 0 367.2 0 0 Z " fill="#E7E7E7" transform="translate(0,0)"/>
<path d="M0 0 C1.20962402 0.00362549 2.41924805 0.00725098 3.66552734 0.01098633 C15.17794935 0.29268456 25.01923863 3.08993604 35.5 7.6875 C36.61246094 8.161875 37.72492188 8.63625 38.87109375 9.125 C43.25991337 11.16334873 46.0895901 13.25831721 49.5 16.6875 C51.48195633 18.23177431 53.48404204 19.75038421 55.5 21.25 C61.67731003 25.91346123 67.32726727 30.97431882 72.9609375 36.27636719 C74.69777385 37.86883452 76.48151523 39.39885038 78.26953125 40.93359375 C83.03596829 45.08212794 87.44555184 49.56007905 91.875 54.0625 C93.46383525 55.67675662 95.05486903 57.28885326 96.6484375 58.8984375 C97.34114746 59.60274902 98.03385742 60.30706055 98.74755859 61.03271484 C100.41166413 62.76371474 100.41166413 62.76371474 102.5 63.6875 C102.68175781 63.0584375 102.86351562 62.429375 103.05078125 61.78125 C104.65552584 56.31688892 106.43585454 50.99530262 108.5 45.6875 C113.04182095 47.22276342 115.20587205 50.96057529 117.875 54.6875 C118.93979528 56.14180587 120.0062689 57.59488407 121.07421875 59.046875 C121.91025635 60.18672852 121.91025635 60.18672852 122.76318359 61.34960938 C125.67129569 65.26415554 128.68064009 69.09861717 131.6875 72.9375 C136.34490005 78.90162982 140.97637496 84.87769943 145.47265625 90.96484375 C146.84795005 92.81181828 148.25288161 94.63701973 149.68359375 96.44140625 C150.73740234 97.80072266 150.73740234 97.80072266 151.8125 99.1875 C152.42738281 99.9609375 153.04226563 100.734375 153.67578125 101.53125 C156.43608657 106.30711017 157.84146004 111.44566615 159.5 116.6875 C160.25592518 118.91778216 161.01903692 121.14564054 161.7890625 123.37109375 C162.36527344 125.03881836 162.36527344 125.03881836 162.953125 126.74023438 C163.33984375 127.85720703 163.7265625 128.97417969 164.125 130.125 C164.51945313 131.26904297 164.91390625 132.41308594 165.3203125 133.59179688 C165.701875 134.69458984 166.0834375 135.79738281 166.4765625 136.93359375 C166.81768066 137.92029053 167.15879883 138.9069873 167.51025391 139.92358398 C168.4509826 142.68519296 168.4509826 142.68519296 169.68896484 145.23461914 C171.01777824 149.25345966 169.90869264 151.79231576 168.19311523 155.55004883 C167.3840271 157.08181763 167.3840271 157.08181763 166.55859375 158.64453125 C165.97529297 159.75634766 165.39199219 160.86816406 164.79101562 162.01367188 C164.17935547 163.16416016 163.56769531 164.31464844 162.9375 165.5 C162.31517391 166.68133458 161.69342303 167.86297237 161.07226562 169.04492188 C159.55380821 171.92881386 158.02955193 174.8094814 156.5 177.6875 C157.25925781 177.38714844 158.01851562 177.08679688 158.80078125 176.77734375 C159.79464844 176.39707031 160.78851562 176.01679688 161.8125 175.625 C162.79863281 175.24214844 163.78476562 174.85929688 164.80078125 174.46484375 C167.5 173.6875 167.5 173.6875 170.5 174.6875 C171.0245951 186.46174549 169.80225175 196.40069923 166.5 207.6875 C166.31953125 208.60015625 166.1390625 209.5128125 165.953125 210.453125 C164.16443266 218.85455874 158.16375161 224.55257042 152.5 230.6875 C149.66471672 228.25956758 148.64428994 225.94829441 147.4140625 222.453125 C147.04313477 221.41140137 146.67220703 220.36967773 146.29003906 219.29638672 C145.90557617 218.1879541 145.52111328 217.07952148 145.125 215.9375 C144.72506836 214.8045752 144.32513672 213.67165039 143.91308594 212.50439453 C141.43851273 205.46764106 139.00549396 198.41704084 136.6953125 191.32446289 C135.92839724 188.9909791 135.14752717 186.66200895 134.34912109 184.33911133 C131.09210677 174.82568905 128.39756335 165.23097265 125.875 155.5 C125.49002256 154.0317858 125.10460687 152.56368645 124.71875 151.09570312 C123.79996201 147.5930971 122.89037619 144.08821965 121.98760986 140.58145142 C121.53823202 138.83599904 121.08636998 137.09118673 120.63427734 135.34643555 C118.98580287 128.89224767 117.56536405 122.42913022 116.375 115.875 C116.20323242 114.93446777 116.03146484 113.99393555 115.85449219 113.02490234 C114.48929451 105.24857733 113.74580939 97.57798143 113.5 89.6875 C112.84 89.6875 112.18 89.6875 111.5 89.6875 C111.61281245 93.52128893 111.74266993 97.35433909 111.875 101.1875 C111.92140625 102.77498047 111.92140625 102.77498047 111.96875 104.39453125 C112.50335406 119.27434418 114.85641918 133.46562076 118.16650391 147.94067383 C118.74650096 150.48465255 119.30953485 153.03197395 119.87109375 155.58007812 C122.30669806 166.45559337 125.3436578 177.02270552 128.8243103 187.60702515 C129.76242175 190.49550677 130.63247953 193.40330321 131.50390625 196.3125 C133.68801718 203.43876798 136.16017747 210.45801537 138.65405273 217.48046875 C139.43615726 219.68371738 140.21348938 221.88860694 140.99023438 224.09375 C145.85556964 237.86823419 151.17561131 251.44765144 156.625 265 C162.87002598 280.53215689 162.87002598 280.53215689 165.5 287.6875 C161.58087814 286.19160679 160.14604458 284.06288252 157.9609375 280.55078125 C156.97311279 278.98191162 156.97311279 278.98191162 155.96533203 277.38134766 C154.93061768 275.70758057 154.93061768 275.70758057 153.875 274 C152.80217591 272.28855666 151.72590155 270.57931567 150.64950562 268.87011719 C149.58785055 267.18342015 148.52926206 265.49479421 147.47070312 263.80615234 C144.91753579 259.76574605 142.29200431 255.7784097 139.625 251.8125 C139.22716309 251.21993408 138.82932617 250.62736816 138.41943359 250.0168457 C137.44797045 248.57259807 136.47416195 247.12992863 135.5 245.6875 C134.84 244.6975 134.18 243.7075 133.5 242.6875 C131.52884407 242.63513135 129.55623763 242.59475172 127.5847168 242.63085938 C122.5188565 242.61847719 117.64566548 242.43770924 113.58984375 239.12939453 C109.83948665 234.89102115 106.97596835 230.06535139 104.07958984 225.22167969 C101.98454174 221.86053606 99.62064625 218.74681375 97.22705078 215.59472656 C91.70359887 208.29571208 87.32960184 201.45528033 84.5 192.6875 C83.84 190.7075 83.18 188.7275 82.5 186.6875 C86.79 185.6975 91.08 184.7075 95.5 183.6875 C94.51112793 183.03475098 93.52225586 182.38200195 92.50341797 181.70947266 C86.4652195 177.26924492 81.5574314 172.95077957 80.08691406 165.33886719 C79.34292932 158.91368124 79.44547312 152.51762974 79.625 146.0625 C79.63977386 144.33086105 79.63977386 144.33086105 79.65484619 142.5642395 C79.95566809 116.55793951 87.74355135 93.68162068 99.5 70.6875 C98.90630615 70.4292041 98.3126123 70.1709082 97.70092773 69.90478516 C95.32179269 68.58893742 94.03737118 67.27442415 92.28515625 65.2109375 C85.69415348 57.39678941 85.69415348 57.39678941 76.9765625 52.59375 C73.6193136 52.56185215 70.76487742 52.92129669 67.5 53.6875 C66.60410156 53.85765625 65.70820312 54.0278125 64.78515625 54.203125 C58.52015377 55.70904239 53.53665239 58.74495188 48.5 62.6875 C47.89414062 63.14382813 47.28828125 63.60015625 46.6640625 64.0703125 C32.95848011 75.91540859 29.059846 97.62200991 27.8125 114.6640625 C26.62420012 134.79089165 27.01149071 155.09944071 30.00561523 175.05786133 C31.30993878 183.9194343 31.84302786 192.51975658 31.81567383 201.46655273 C31.81250619 203.6207926 31.83613 205.77366164 31.86132812 207.92773438 C31.97419287 232.36590327 24.85684133 256.11669113 7.4375 273.8671875 C-1.15888693 282.27545721 -10.49329138 287.62194593 -21.59155273 291.93847656 C-23.42826595 292.65934597 -25.24041456 293.44187111 -27.05078125 294.2265625 C-33.26095925 296.53630762 -39.91575981 297.20729916 -46.4375 298.1875 C-57.56396723 299.85063755 -57.56396723 299.85063755 -68.32885742 303.00439453 C-71.74229417 304.07836237 -75.22033122 304.47824935 -78.75756836 304.96484375 C-89.96432908 306.53365952 -98.26465158 308.95053973 -107.5 315.6875 C-108.14517578 316.14753418 -108.79035156 316.60756836 -109.45507812 317.08154297 C-114.22782306 320.50276416 -118.88455947 324.05770026 -123.5 327.6875 C-124.985 328.84958984 -124.985 328.84958984 -126.5 330.03515625 C-137.7574056 339.05089824 -148.01828132 349.10606879 -158.25 359.25 C-159.1251123 360.11206055 -160.00022461 360.97412109 -160.90185547 361.86230469 C-166.08222299 367.03581599 -170.84171394 372.38873138 -175.41552734 378.10473633 C-177.283755 380.41956186 -179.20385101 382.65992866 -181.1796875 384.8828125 C-184.5052541 388.64821827 -187.59134867 392.55972575 -190.625 396.5625 C-191.45523682 397.65498047 -191.45523682 397.65498047 -192.30224609 398.76953125 C-212.62775819 425.6329587 -230.62119857 453.96460339 -246.5 483.6875 C-247.01353027 484.6475293 -247.52706055 485.60755859 -248.05615234 486.59667969 C-269.34250142 526.58695695 -286.86267699 567.99553574 -301.8157959 610.73522949 C-302.85239297 613.6929988 -303.89961181 616.64700171 -304.9453125 619.6015625 C-308.34181094 629.23722324 -311.60488317 638.88775931 -314.5 648.6875 C-314.9522231 650.18386661 -315.40542914 651.67993636 -315.859375 653.17578125 C-317.42437771 658.34100807 -318.96516339 663.51324021 -320.5 668.6875 C-320.85964844 669.8930957 -320.85964844 669.8930957 -321.2265625 671.12304688 C-325.76278072 686.38916588 -329.62158437 701.81884881 -333.41601562 717.28222656 C-334.33288095 721.0156539 -335.26146211 724.74606942 -336.19268799 728.47593689 C-341.50510707 749.77895246 -346.25166365 771.14696115 -350.5 792.6875 C-352.48 792.6875 -354.46 792.6875 -356.5 792.6875 C-355.86204012 787.87910858 -355.0144652 783.17920699 -353.96875 778.44335938 C-353.81707147 777.75319292 -353.66539293 777.06302647 -353.50911808 776.35194588 C-353.0086129 774.07781342 -352.50437287 771.80452752 -352 769.53125 C-351.64454498 767.92072555 -351.28927844 766.3101595 -350.93418884 764.69955444 C-349.98819089 760.41257618 -349.03864873 756.12639068 -348.08811569 751.84041595 C-347.49925922 749.18415841 -346.91135975 746.52769081 -346.32376099 743.87115479 C-341.65685345 722.7747263 -336.97021691 701.68401798 -332.05541611 680.64369774 C-330.03424381 671.99031479 -328.02545146 663.33422002 -326.04296875 654.671875 C-325.79794806 653.60133818 -325.79794806 653.60133818 -325.54797745 652.50917435 C-322.13206233 637.56757145 -318.79308919 622.60890744 -315.4609375 607.6484375 C-315.19493555 606.45431622 -314.9289336 605.26019493 -314.65487099 604.02988815 C-312.16578789 592.85457037 -309.67879074 581.67878904 -307.19433594 570.50244141 C-305.81876056 564.31488893 -304.44112828 558.12779715 -303.06230545 551.94096756 C-302.54734386 549.62845515 -302.03312692 547.31577674 -301.51975632 545.00291061 C-298.62974312 531.98334037 -295.65528121 518.98997096 -292.50633812 506.03030968 C-290.55375479 497.98758991 -288.77422871 489.92346084 -287.125 481.8125 C-286.86589844 480.56726563 -286.60679687 479.32203125 -286.33984375 478.0390625 C-284.99332845 471.91071265 -284.99332845 471.91071265 -284.5 465.6875 C-285.40878906 466.5228125 -285.40878906 466.5228125 -286.3359375 467.375 C-291.30883481 471.90416186 -296.35612986 476.25765969 -301.640625 480.41796875 C-303.77308529 482.11053628 -305.88421106 483.81899742 -307.984375 485.55078125 C-318.57376289 494.2707349 -329.4555974 502.55322473 -340.5 510.6875 C-341.15774414 511.17379883 -341.81548828 511.66009766 -342.49316406 512.16113281 C-376.09520927 536.92715117 -376.09520927 536.92715117 -387.5 535.6875 C-388.07544028 529.86812814 -386.13666988 525.95267131 -383.625 520.875 C-383.21717285 520.03606201 -382.8093457 519.19712402 -382.38916016 518.33276367 C-378.1953205 509.84347855 -373.46176194 501.74532071 -368.5 493.6875 C-367.74783203 492.4514502 -367.74783203 492.4514502 -366.98046875 491.19042969 C-358.72684634 477.64023085 -350.05345889 464.38416215 -341.25 451.1875 C-340.49792267 450.05989761 -340.49792267 450.05989761 -339.73065186 448.90951538 C-324.11297807 425.51816957 -308.07806642 402.4090579 -291.5 379.6875 C-290.67314697 378.55344727 -290.67314697 378.55344727 -289.82958984 377.39648438 C-277.05717117 359.90486515 -263.97085971 342.6475332 -250.5 325.6875 C-249.79617188 324.800625 -249.09234375 323.91375 -248.3671875 323 C-246.41952414 320.55587343 -244.46287896 318.11942032 -242.5 315.6875 C-241.47519531 314.41712891 -241.47519531 314.41712891 -240.4296875 313.12109375 C-232.08099102 302.84232228 -223.51074453 292.76263391 -214.5625 283 C-214.05050049 282.43120117 -213.53850098 281.86240234 -213.01098633 281.27636719 C-210.27971553 278.33224304 -207.61873315 275.77537348 -204.37670898 273.37597656 C-195.47285871 266.77669639 -192.00022132 260.74238256 -189.0776062 250.13024902 C-187.96689623 246.10849927 -186.70492936 242.13302242 -185.46875 238.1484375 C-185.22406479 237.34539185 -184.97937958 236.54234619 -184.72727966 235.71496582 C-180.9225316 223.3407948 -175.70701526 211.5270519 -170.5 199.6875 C-170.04270508 198.64207031 -169.58541016 197.59664062 -169.11425781 196.51953125 C-154.54516653 163.416542 -137.50545622 127.29914721 -110.8125 102.02734375 C-109.37900567 100.70087071 -109.37900567 100.70087071 -108.5 98.6875 C-107.84 98.6875 -107.18 98.6875 -106.5 98.6875 C-106.43425781 97.73488281 -106.36851562 96.78226562 -106.30078125 95.80078125 C-105.55318333 90.65281421 -103.12822704 86.40867558 -100.6875 81.875 C-99.95370117 80.4971936 -99.95370117 80.4971936 -99.20507812 79.09155273 C-94.2123484 69.88719856 -88.6009048 61.19129239 -82.5 52.6875 C-82.06252441 52.07358398 -81.62504883 51.45966797 -81.17431641 50.82714844 C-62.09032745 24.39644263 -34.27906356 -0.20522048 0 0 Z " fill="#63D5F6" transform="translate(649.5,287.3125)"/>
</svg>
